<svg width="180" height="44" viewBox="0 0 180 44" fill="none" xmlns="http://www.w3.org/2000/svg">
<path d="M56.517 30V12.5455H60.2074V26.9574H67.6903V30H56.517ZM80.0632 30V32.7528H68.6001V30H80.0632ZM87.2116 30.3835C85.7457 30.3778 84.4844 30.017 83.4276 29.3011C82.3764 28.5852 81.5668 27.5483 80.9986 26.1903C80.4361 24.8324 80.1577 23.1989 80.1634 21.2898C80.1634 19.3864 80.4446 17.7642 81.0071 16.4233C81.5753 15.0824 82.3849 14.0625 83.4361 13.3636C84.4929 12.6591 85.7514 12.3068 87.2116 12.3068C88.6719 12.3068 89.9276 12.6591 90.9787 13.3636C92.0355 14.0682 92.848 15.0909 93.4162 16.4318C93.9844 17.767 94.2656 19.3864 94.2599 21.2898C94.2599 23.2045 93.9759 24.8409 93.4077 26.1989C92.8452 27.5568 92.0384 28.5937 90.9872 29.3097C89.9361 30.0256 88.6776 30.3835 87.2116 30.3835ZM87.2116 27.3239C88.2116 27.3239 89.0099 26.821 89.6065 25.8153C90.2031 24.8097 90.4986 23.3011 90.4929 21.2898C90.4929 19.9659 90.3565 18.8636 90.0838 17.983C89.8168 17.1023 89.4361 16.4403 88.9418 15.9972C88.4531 15.554 87.8764 15.3324 87.2116 15.3324C86.2173 15.3324 85.4219 15.8295 84.8253 16.8239C84.2287 17.8182 83.9276 19.3068 83.9219 21.2898C83.9219 22.6307 84.0554 23.75 84.3224 24.6477C84.5952 25.5398 84.9787 26.2102 85.473 26.6591C85.9673 27.1023 86.5469 27.3239 87.2116 27.3239ZM102.823 35.1818C101.647 35.1818 100.638 35.0199 99.7976 34.696C98.9624 34.3778 98.2976 33.9432 97.8033 33.392C97.3089 32.8409 96.9879 32.2216 96.8402 31.5341L100.198 31.0824C100.3 31.3438 100.462 31.5881 100.684 31.8153C100.906 32.0426 101.198 32.2244 101.562 32.3608C101.931 32.5028 102.38 32.5739 102.908 32.5739C103.698 32.5739 104.349 32.3807 104.86 31.9943C105.377 31.6136 105.636 30.9744 105.636 30.0767V27.6818H105.482C105.323 28.0455 105.085 28.3892 104.766 28.7131C104.448 29.0369 104.039 29.3011 103.539 29.5057C103.039 29.7102 102.442 29.8125 101.749 29.8125C100.766 29.8125 99.8714 29.5852 99.0646 29.1307C98.2635 28.6705 97.6243 27.9687 97.147 27.0256C96.6754 26.0767 96.4396 24.8778 96.4396 23.429C96.4396 21.946 96.6811 20.7074 97.1641 19.7131C97.647 18.7187 98.2891 17.9744 99.0902 17.4801C99.897 16.9858 100.781 16.7386 101.741 16.7386C102.474 16.7386 103.087 16.8636 103.582 17.1136C104.076 17.358 104.474 17.6648 104.775 18.0341C105.082 18.3977 105.317 18.7557 105.482 19.108H105.619V16.9091H109.224V30.1278C109.224 31.2415 108.951 32.1733 108.406 32.9233C107.86 33.6733 107.104 34.2358 106.138 34.6108C105.178 34.9915 104.073 35.1818 102.823 35.1818ZM102.9 27.0852C103.485 27.0852 103.979 26.9403 104.383 26.6506C104.792 26.3551 105.104 25.9347 105.32 25.3892C105.542 24.8381 105.653 24.179 105.653 23.4119C105.653 22.6449 105.545 21.9801 105.329 21.4176C105.113 20.8494 104.8 20.4091 104.391 20.0966C103.982 19.7841 103.485 19.6278 102.9 19.6278C102.303 19.6278 101.8 19.7898 101.391 20.1136C100.982 20.4318 100.673 20.875 100.462 21.4432C100.252 22.0114 100.147 22.6676 100.147 23.4119C100.147 24.1676 100.252 24.821 100.462 25.3722C100.678 25.9176 100.988 26.3409 101.391 26.642C101.8 26.9375 102.303 27.0852 102.9 27.0852ZM115.846 30.2472C115.011 30.2472 114.266 30.1023 113.613 29.8125C112.96 29.517 112.442 29.0824 112.062 28.5085C111.687 27.929 111.499 27.2074 111.499 26.3438C111.499 25.6165 111.633 25.0057 111.9 24.5114C112.167 24.017 112.531 23.6193 112.991 23.3182C113.451 23.017 113.974 22.7898 114.559 22.6364C115.15 22.483 115.769 22.375 116.417 22.3125C117.178 22.233 117.792 22.1591 118.258 22.0909C118.724 22.017 119.062 21.9091 119.272 21.767C119.482 21.625 119.587 21.4148 119.587 21.1364V21.0852C119.587 20.5455 119.417 20.1278 119.076 19.8324C118.741 19.5369 118.263 19.3892 117.644 19.3892C116.991 19.3892 116.471 19.5341 116.085 19.8239C115.698 20.108 115.442 20.4659 115.317 20.8977L111.96 20.625C112.13 19.8295 112.465 19.142 112.965 18.5625C113.465 17.9773 114.11 17.5284 114.9 17.2159C115.695 16.8977 116.616 16.7386 117.661 16.7386C118.388 16.7386 119.085 16.8239 119.749 16.9943C120.42 17.1648 121.013 17.429 121.531 17.7869C122.053 18.1449 122.465 18.6051 122.766 19.1676C123.067 19.7244 123.218 20.392 123.218 21.1705V30H119.775V28.1847H119.673C119.462 28.5938 119.181 28.9545 118.829 29.267C118.477 29.5739 118.053 29.8153 117.559 29.9915C117.065 30.1619 116.494 30.2472 115.846 30.2472ZM116.886 27.7415C117.42 27.7415 117.891 27.6364 118.3 27.4261C118.71 27.2102 119.031 26.9205 119.263 26.5568C119.496 26.1932 119.613 25.7812 119.613 25.321V23.9318C119.499 24.0057 119.343 24.0739 119.144 24.1364C118.951 24.1932 118.732 24.2472 118.488 24.2983C118.244 24.3437 117.999 24.3864 117.755 24.4261C117.511 24.4602 117.289 24.4915 117.09 24.5199C116.664 24.5824 116.292 24.6818 115.974 24.8182C115.656 24.9545 115.408 25.1392 115.232 25.3722C115.056 25.5994 114.968 25.8835 114.968 26.2244C114.968 26.7188 115.147 27.0966 115.505 27.358C115.869 27.6136 116.329 27.7415 116.886 27.7415ZM129.665 22.4318V30H126.035V16.9091H129.495V19.2188H129.648C129.938 18.4574 130.424 17.8551 131.106 17.4119C131.788 16.9631 132.614 16.7386 133.586 16.7386C134.495 16.7386 135.288 16.9375 135.964 17.3352C136.64 17.733 137.165 18.3011 137.54 19.0398C137.915 19.7727 138.103 20.6477 138.103 21.6648V30H134.472V22.3125C134.478 21.5114 134.273 20.8864 133.859 20.4375C133.444 19.983 132.873 19.7557 132.146 19.7557C131.657 19.7557 131.225 19.8608 130.85 20.071C130.481 20.2812 130.191 20.5881 129.981 20.9915C129.776 21.3892 129.671 21.8693 129.665 22.4318Z" fill="#ECF1F0"/>
<g clip-path="url(#clip0_3002_1126)">
<path fill-rule="evenodd" clip-rule="evenodd" d="M0 21.0205L1.55218 23.0107L5.62169 28.2282V12.782H0V21.0205Z" fill="#ECF1F0"/>
<path fill-rule="evenodd" clip-rule="evenodd" d="M0 9.06136H5.62169V6.0104H11.2429V35.4354L17.9233 44V0H0V9.06136Z" fill="#ECF1F0"/>
<path fill-rule="evenodd" clip-rule="evenodd" d="M21.0771 0V43.9996L27.7575 35.4345V6.0104H33.3783V9.06136H39V0H21.0771Z" fill="#ECF1F0"/>
<path fill-rule="evenodd" clip-rule="evenodd" d="M33.3783 28.2282L37.4478 23.0107L39 21.0205V12.782H33.3783V28.2282Z" fill="#ECF1F0"/>
</g>
<defs>
<clipPath id="clip0_3002_1126">
<rect width="39" height="44" fill="white"/>
</clipPath>
</defs>
</svg>
